<?xml version="1.0" encoding="UTF-8" standalone="no" ?>
<!DOCTYPE svg PUBLIC "-//W3C//DTD SVG 1.1//EN" "http://www.w3.org/Graphics/SVG/1.1/DTD/svg11.dtd">
<svg xmlns="http://www.w3.org/2000/svg" xmlns:xlink="http://www.w3.org/1999/xlink" version="1.1" width="150" height="150" viewBox="0 0 1280 1024" xml:space="preserve">
<desc>Created with Fabric.js 4.4.0</desc>
<defs>
</defs>
<g transform="matrix(1 0 0 1 640 512)" id="background-logo"  >
<rect style="stroke: none; stroke-width: 0; stroke-dasharray: none; stroke-linecap: butt; stroke-dashoffset: 0; stroke-linejoin: miter; stroke-miterlimit: 4; fill: rgb(255,255,255); fill-opacity: 0; fill-rule: nonzero; opacity: 1;"  paint-order="stroke"  x="-640" y="-512" rx="0" ry="0" width="1280" height="1024" />
</g>
<g transform="matrix(1.9211538461538462 0 0 1.9211538461538462 640 406.02525444362493)" id="logo-logo"  >
<g style=""  paint-order="stroke"   >
		<g transform="matrix(2.536896633119969 0 0 -2.536896633119969 49.173174819090946 -112.06575978526314)"  >
<path style="stroke: none; stroke-width: 1; stroke-dasharray: none; stroke-linecap: butt; stroke-dashoffset: 0; stroke-linejoin: miter; stroke-miterlimit: 4; fill: rgb(42,54,78); fill-rule: nonzero; opacity: 1;"  paint-order="stroke"  transform=" translate(0, 0)" d="M 0 0 Z" stroke-linecap="round" />
</g>
		<g transform="matrix(2.536896633119969 0 0 -2.536896633119969 56.25517546010866 120.5369650225773)"  >
<path style="stroke: none; stroke-width: 1; stroke-dasharray: none; stroke-linecap: butt; stroke-dashoffset: 0; stroke-linejoin: miter; stroke-miterlimit: 4; fill: rgb(42,54,78); fill-rule: nonzero; opacity: 1;"  paint-order="stroke"  transform=" translate(3.1850000000000014, 1.4555000000000007)" d="M 0 0 L -0.433 0.061 L 0 -0.005 C -0.141 -0.928 -0.442 -1.839 -0.916 -2.707 C -1.97 -4.626 -3.683 -5.945 -5.614 -6.542 C -5.656 -6.555 -5.7 -6.561 -5.743 -6.561 C -5.816000000000001 -6.561 -5.890000000000001 -6.542 -5.955 -6.508 C -6.059 -6.45 -6.136 -6.353 -6.167 -6.237 C -6.356 -5.543 -6.452 -4.823 -6.452 -4.098000000000001 C -6.452 -3.7000000000000006 -6.426 -3.3000000000000007 -6.3629999999999995 -2.908000000000001 C -6.228 -1.9840000000000009 -5.928999999999999 -1.0730000000000008 -5.449999999999999 -0.20800000000000063 C -4.395 1.7129999999999994 -2.6859999999999995 3.0299999999999994 -0.7489999999999997 3.6299999999999994 C -0.6359999999999997 3.6659999999999995 -0.5129999999999997 3.6529999999999996 -0.40899999999999964 3.5959999999999996 C -0.30499999999999966 3.5369999999999995 -0.22899999999999965 3.441 -0.19699999999999965 3.3249999999999997 C -0.01 2.629 0.084 1.908 0.084 1.183 C 0.084 0.789 0.056 0.396 0 0 M 1.082 6.315 L 0.244 6.197 C -2.882 5.768 -5.795 3.905 -7.441 0.902 C -8.058 -0.215 -8.445 -1.39 -8.622 -2.577 C -8.698 -3.09 -8.737 -3.603 -8.739 -4.115 C -8.737 -5.616 -8.414000000000001 -7.093 -7.795000000000001 -8.454 L -7.447000000000001 -9.226 L -6.607000000000001 -9.111 C -3.479000000000001 -8.682 -0.5670000000000011 -6.817 1.0809999999999986 -3.8130000000000006 C 1.0869999999999986 -3.8010000000000006 1.0939999999999985 -3.791000000000001 1.1009999999999986 -3.7800000000000007 C 1.6999999999999986 -2.678000000000001 2.078999999999999 -1.5140000000000007 2.2559999999999985 -0.33300000000000063 C 2.3309999999999986 0.18199999999999938 2.3689999999999984 0.6989999999999994 2.3689999999999984 1.2169999999999994 C 2.3689999999999984 2.7149999999999994 2.0439999999999983 4.1899999999999995 1.4339999999999984 5.54 z" stroke-linecap="round" />
</g>
		<g transform="matrix(2.536896633119969 0 0 -2.536896633119969 -56.25568283943528 -120.53569657426075)"  >
<path style="stroke: none; stroke-width: 1; stroke-dasharray: none; stroke-linecap: butt; stroke-dashoffset: 0; stroke-linejoin: miter; stroke-miterlimit: 4; fill: rgb(42,54,78); fill-rule: nonzero; opacity: 1;"  paint-order="stroke"  transform=" translate(-3.1814999999999998, -1.4479999999999995)" d="M 0 0 C 0.138 0.92 0.44 1.836 0.917 2.7 C 1.968 4.618 3.68 5.936 5.614 6.535 C 5.725 6.569 5.851 6.557 5.955 6.499 C 6.059 6.443 6.134 6.344 6.165 6.23 C 6.354 5.534 6.451 4.814 6.451 4.088 C 6.451 3.692 6.421 3.295 6.363 2.899 C 6.226 1.975 5.926 1.063 5.449 0.198 C 4.393 -1.719 2.684 -3.039 0.75 -3.641 C 0.708 -3.654 0.665 -3.66 0.621 -3.66 C 0.548 -3.66 0.474 -3.6420000000000003 0.40800000000000003 -3.604 C 0.30400000000000005 -3.549 0.22800000000000004 -3.45 0.19600000000000004 -3.3360000000000003 C 0.007000000000000034 -2.6410000000000005 -0.08899999999999994 -1.9170000000000003 -0.08899999999999994 -1.1940000000000004 C -0.08899999999999994 -0.7980000000000004 -0.06099999999999994 -0.39700000000000035 5.551115123125783e-17 -4.440892098500626e-16 M -1.083 -6.323 L -0.247 -6.206 C 2.88 -5.773000000000001 5.795 -3.9140000000000006 7.442 -0.9120000000000008 C 8.056000000000001 0.2059999999999993 8.445 1.379999999999999 8.622 2.564999999999999 C 8.699 3.079999999999999 8.735 3.594999999999999 8.735 4.106999999999999 C 8.735 5.610999999999999 8.408999999999999 7.090999999999999 7.794 8.445 L 7.444 9.219 L 6.608 9.103 C 3.478 8.67 0.569 6.812 -1.083 3.807 L -1.083 3.803 C -1.6949999999999998 2.6929999999999996 -2.0789999999999997 1.5190000000000001 -2.255 0.32699999999999996 C -2.3329999999999997 -0.18800000000000006 -2.372 -0.706 -2.372 -1.221 C -2.372 -2.72 -2.048 -4.195 -1.434 -5.548 z" stroke-linecap="round" />
</g>
		<g transform="matrix(2.536896633119969 0 0 -2.536896633119969 126.13094894343857 0.06177343301641258)"  >
<path style="stroke: none; stroke-width: 1; stroke-dasharray: none; stroke-linecap: butt; stroke-dashoffset: 0; stroke-linejoin: miter; stroke-miterlimit: 4; fill: rgb(42,54,78); fill-rule: nonzero; opacity: 1;"  paint-order="stroke"  transform=" translate(0.0005, 0)" d="M 0 0 L 0 0 L -0.001 0 Z" stroke-linecap="round" />
</g>
		<g transform="matrix(2.536896633119969 0 0 -2.536896633119969 -125.0152218041923 -45.44609313054286)"  >
<path style="stroke: none; stroke-width: 1; stroke-dasharray: none; stroke-linecap: butt; stroke-dashoffset: 0; stroke-linejoin: miter; stroke-miterlimit: 4; fill: rgb(42,54,78); fill-rule: nonzero; opacity: 1;"  paint-order="stroke"  transform=" translate(-1.8775, 5.318000000000001)" d="M 0 0 C 0.056 0.104 0.152 0.184 0.266 0.215 C 0.38 0.249 0.503 0.235 0.607 0.174 C 1.574 -0.379 2.433 -1.131 3.104 -2.043 C 3.658 -2.79 4.091 -3.646 4.367 -4.596 C 4.586 -5.353 4.69 -6.117 4.69 -6.867 C 4.69 -8.196 4.357 -9.485 3.7570000000000006 -10.633 C 3.7020000000000004 -10.739999999999998 3.6070000000000007 -10.816999999999998 3.4920000000000004 -10.850999999999999 C 3.4510000000000005 -10.863 3.4090000000000003 -10.869 3.3680000000000003 -10.869 C 3.2920000000000003 -10.869 3.2180000000000004 -10.849 3.1500000000000004 -10.81 C 2.1830000000000003 -10.251000000000001 1.3300000000000003 -9.502 0.6530000000000005 -8.592 C 0.10400000000000043 -7.843000000000001 -0.3309999999999995 -6.985 -0.6069999999999995 -6.035 C -0.8289999999999995 -5.2780000000000005 -0.9329999999999996 -4.516 -0.9329999999999996 -3.7670000000000003 C -0.9329999999999996 -2.4350000000000005 -0.6039999999999996 -1.1440000000000001 4.440892098500626e-16 -4.440892098500626e-16 M -2.8009999999999997 -6.672000000000001 C -2.4479999999999995 -7.8870000000000005 -1.8899999999999997 -8.988 -1.1719999999999997 -9.954 C 0.04100000000000037 -11.598 1.6930000000000005 -12.824000000000002 3.564 -13.527000000000001 L 4.359 -13.827000000000002 L 4.867 -13.153000000000002 C 6.209 -11.378000000000002 6.978 -9.173000000000002 6.978 -6.879000000000002 C 6.978 -5.918000000000002 6.842 -4.942000000000002 6.56 -3.972000000000002 C 6.204 -2.747 5.648 -1.644 4.935 -0.679 C 3.721 0.962 2.06 2.193 0.194 2.894 L -0.6020000000000001 3.1910000000000003 L -1.112 2.5170000000000003 C -2.457 0.7450000000000003 -3.2230000000000003 -1.4529999999999998 -3.2230000000000003 -3.744999999999999 C -3.2230000000000003 -4.709999999999999 -3.087 -5.688999999999999 -2.8020000000000005 -6.664 z" stroke-linecap="round" />
</g>
		<g transform="matrix(2.536896633119969 0 0 -2.536896633119969 -120.53455497077576 56.2535264772971)"  >
<path style="stroke: none; stroke-width: 1; stroke-dasharray: none; stroke-linecap: butt; stroke-dashoffset: 0; stroke-linejoin: miter; stroke-miterlimit: 4; fill: rgb(42,54,78); fill-rule: nonzero; opacity: 1;"  paint-order="stroke"  transform=" translate(5.0525, -2.7745000000000006)" d="M 0 0 C -0.058 -0.104 -0.154 -0.182 -0.271 -0.212 C -0.967 -0.4 -1.689 -0.495 -2.413 -0.495 C -2.8089999999999997 -0.495 -3.2079999999999997 -0.46599999999999997 -3.5969999999999995 -0.411 L -3.5369999999999995 0.02200000000000002 L -3.6019999999999994 -0.408 C -4.523 -0.27099999999999996 -5.436999999999999 0.03200000000000003 -6.302 0.506 C -8.219999999999999 1.56 -9.538 3.269 -10.142 5.2010000000000005 C -10.176 5.313000000000001 -10.164 5.438000000000001 -10.106 5.542000000000001 C -10.05 5.648000000000001 -9.951 5.7250000000000005 -9.837 5.755000000000001 C -9.139 5.945000000000001 -8.416 6.045000000000001 -7.688 6.045000000000001 C -7.292999999999999 6.045000000000001 -6.895 6.017000000000001 -6.5 5.952000000000001 C -5.58 5.815 -4.671 5.518 -3.803 5.039 C -1.885 3.982 -0.565 2.273 0.035 0.342 C 0.07 0.229 0.059 0.104 0 0 M -2.69 7.033 C -3.81 7.647 -4.984999999999999 8.035 -6.172000000000001 8.213000000000001 C -6.687 8.291 -7.202000000000001 8.329 -7.712000000000001 8.329 C -9.216000000000001 8.329 -10.695 8.003 -12.05 7.3870000000000005 L -12.823 7.0360000000000005 L -12.709 6.196000000000001 C -12.277 3.0630000000000006 -10.415 0.16000000000000103 -7.409999999999999 -1.4909999999999997 L -7.404999999999999 -1.4959999999999996 C -6.294999999999999 -2.1009999999999995 -5.119999999999999 -2.4899999999999993 -3.930999999999999 -2.6659999999999995 C -3.415999999999999 -2.7429999999999994 -2.900999999999999 -2.7799999999999994 -2.3859999999999992 -2.7799999999999994 C -0.8869999999999991 -2.7799999999999994 0.588000000000001 -2.4559999999999995 1.9440000000000008 -1.8439999999999994 L 2.718000000000001 -1.4929999999999994 L 2.6020000000000008 -0.6549999999999995 C 2.169 2.471 0.31 5.387 -2.69 7.033" stroke-linecap="round" />
</g>
		<g transform="matrix(2.536896633119969 0 0 -2.536896633119969 45.45053269965081 -125.01763185599378)"  >
<path style="stroke: none; stroke-width: 1; stroke-dasharray: none; stroke-linecap: butt; stroke-dashoffset: 0; stroke-linejoin: miter; stroke-miterlimit: 4; fill: rgb(42,54,78); fill-rule: nonzero; opacity: 1;"  paint-order="stroke"  transform=" translate(3.276, -1.2249999999999996)" d="M 0 0 C -0.75 -0.556 -1.603 -0.989 -2.555 -1.262 C -3.3040000000000003 -1.479 -4.059 -1.586 -4.801 -1.586 L -4.8260000000000005 -1.586 C -6.158 -1.586 -7.449000000000001 -1.2550000000000001 -8.593 -0.655 C -8.696 -0.597 -8.776 -0.503 -8.81 -0.389 C -8.842 -0.273 -8.829 -0.15000000000000002 -8.769 -0.04799999999999999 C -8.21 0.919 -7.459 1.775 -6.553 2.447 C -5.803 3 -4.941 3.436 -3.9939999999999998 3.709 C -3.234 3.931 -2.473 4.038 -1.7239999999999998 4.0360000000000005 C -0.394 4.038 0.895 3.704 2.041 3.1 C 2.145 3.046 2.225 2.95 2.258 2.836 C 2.289 2.722 2.274 2.599 2.217 2.495 C 1.664 1.528 0.909 0.672 0 0 M 4.935 2.909 L 5.234 3.704 L 4.56 4.214 C 2.785 5.559 0.587 6.325 -1.707 6.325 C -2.672 6.322 -3.651 6.189 -4.623 5.904 L -4.627 5.904 C -5.841 5.551 -6.944 4.99 -7.911 4.277 C -9.556 3.059 -10.783 1.409 -11.486 -0.462 L -11.786000000000001 -1.2550000000000001 L -11.111 -1.7650000000000001 C -9.34 -3.109 -7.135000000000001 -3.875 -4.838000000000001 -3.875 C -3.878000000000001 -3.875 -2.905000000000001 -3.74 -1.9320000000000008 -3.46 L -1.9320000000000008 -3.46 C -0.7060000000000008 -3.102 0.39799999999999924 -2.546 1.362999999999999 -1.833 C 3.0029999999999992 -0.619 4.231999999999999 1.0400000000000003 4.934999999999999 2.909" stroke-linecap="round" />
</g>
		<g transform="matrix(2.536896633119969 0 0 -2.536896633119969 -63.22682109758563 -116.69001496811421)"  >
<path style="stroke: none; stroke-width: 1; stroke-dasharray: none; stroke-linecap: butt; stroke-dashoffset: 0; stroke-linejoin: miter; stroke-miterlimit: 4; fill: rgb(42,54,78); fill-rule: nonzero; opacity: 1;"  paint-order="stroke"  transform=" translate(-0.0005, 0)" d="M 0 0 L 0.001 0 Z" stroke-linecap="round" />
</g>
		<g transform="matrix(2.536896633119969 0 0 -2.536896633119969 -45.447234734027575 125.01002116609453)"  >
<path style="stroke: none; stroke-width: 1; stroke-dasharray: none; stroke-linecap: butt; stroke-dashoffset: 0; stroke-linejoin: miter; stroke-miterlimit: 4; fill: rgb(42,54,78); fill-rule: nonzero; opacity: 1;"  paint-order="stroke"  transform=" translate(5.493, 1.2684999999999995)" d="M 0 0 C -0.556 -0.967 -1.308 -1.821 -2.217 -2.493 C -2.966 -3.046 -3.825 -3.479 -4.775 -3.758 C -5.523000000000001 -3.973 -6.276 -4.079 -7.018000000000001 -4.079 L -7.043000000000001 -4.079 C -8.375000000000002 -4.079 -9.664000000000001 -3.7479999999999998 -10.807 -3.151 C -10.914 -3.093 -10.994 -2.9979999999999998 -11.025 -2.8819999999999997 C -11.059000000000001 -2.7689999999999997 -11.044 -2.646 -10.986 -2.5439999999999996 C -10.433 -1.5739999999999996 -9.679 -0.7209999999999996 -8.767000000000001 -0.04699999999999971 C -8.017000000000001 0.5070000000000003 -7.1640000000000015 0.9420000000000003 -6.211000000000001 1.2160000000000002 C -5.457000000000001 1.4360000000000002 -4.695000000000001 1.5430000000000001 -3.946000000000001 1.5430000000000001 C -2.6140000000000008 1.5430000000000001 -1.325000000000001 1.2140000000000002 -0.17700000000000093 0.6060000000000001 C -0.07 0.553 0.007 0.454 0.041 0.341 C 0.075 0.228 0.058 0.104 0 0 M -3.927 3.832 C -4.889 3.83 -5.866 3.698 -6.835 3.41 L -6.958 3.83 L -6.838 3.41 C -8.063 3.054 -9.168 2.499 -10.131 1.786 C -11.772 0.572 -13 -1.088 -13.702 -2.957 L -14.003 -3.751 L -13.33 -4.26 C -11.555 -5.604 -9.356 -6.369 -7.065 -6.369 C -6.103000000000001 -6.369 -5.121 -6.233 -4.1450000000000005 -5.951 L -4.140000000000001 -5.949999999999999 C -2.9270000000000005 -5.6 -1.8220000000000005 -5.039 -0.8540000000000005 -4.321999999999999 C 0.7849999999999995 -3.1099999999999994 2.0189999999999997 -1.452999999999999 2.7169999999999996 0.4110000000000005 L 3.0169999999999995 1.2080000000000006 L 2.3429999999999995 1.7190000000000007 C 0.57 3.063 -1.632 3.832 -3.927 3.832" stroke-linecap="round" />
</g>
		<g transform="matrix(2.536896633119969 0 0 -2.536896633119969 125.0147144248657 45.453196441115495)"  >
<path style="stroke: none; stroke-width: 1; stroke-dasharray: none; stroke-linecap: butt; stroke-dashoffset: 0; stroke-linejoin: miter; stroke-miterlimit: 4; fill: rgb(42,54,78); fill-rule: nonzero; opacity: 1;"  paint-order="stroke"  transform=" translate(1.8789999999999996, -5.314000000000002)" d="M 0 0 C -0.057 -0.107 -0.152 -0.185 -0.267 -0.219 C -0.307 -0.229 -0.34800000000000003 -0.235 -0.388 -0.235 C -0.464 -0.235 -0.539 -0.215 -0.608 -0.178 C -1.575 0.37900000000000006 -2.428 1.129 -3.103 2.0380000000000003 C -3.656 2.789 -4.0920000000000005 3.6460000000000004 -4.364 4.596 C -4.585 5.353 -4.691 6.116 -4.691 6.867 C -4.691 8.197 -4.362 9.486 -3.756 10.632 C -3.6999999999999997 10.738999999999999 -3.6029999999999998 10.815 -3.4899999999999998 10.847999999999999 C -3.376 10.880999999999998 -3.252 10.864999999999998 -3.1479999999999997 10.806999999999999 C -2.182 10.251 -1.325 9.5 -0.656 8.589 C -0.1 7.84 0.333 6.981 0.609 6.031 C 0.828 5.274 0.933 4.513 0.933 3.764 C 0.933 2.434 0.599 1.147 0 0 M 2.798 6.685 C 2.443 7.891 1.8860000000000001 8.991 1.175 9.955 C -0.038999999999999924 11.595 -1.695 12.825 -3.5620000000000003 13.524000000000001 L -4.357 13.823 L -4.868 13.149000000000001 C -6.212000000000001 11.378 -6.978 9.175 -6.978 6.878000000000001 C -6.978 5.917000000000001 -6.846 4.941000000000001 -6.561 3.970000000000001 C -6.205 2.745000000000001 -5.646 1.641000000000001 -4.936 0.6790000000000012 C -3.7199999999999998 -0.9649999999999987 -2.0629999999999997 -2.190999999999999 -0.18799999999999972 -2.8949999999999987 L 0.6040000000000003 -3.1949999999999985 L 1.1110000000000002 -2.5219999999999985 C 2.455 -0.748 3.22 1.452 3.22 3.747 C 3.22 4.709 3.085 5.69 2.804 6.662 C 2.802 6.67 2.801 6.677 2.798 6.685" stroke-linecap="round" />
</g>
		<g transform="matrix(2.536896633119969 0 0 -2.536896633119969 120.53455497077584 -56.25682444292022)"  >
<path style="stroke: none; stroke-width: 1; stroke-dasharray: none; stroke-linecap: butt; stroke-dashoffset: 0; stroke-linejoin: miter; stroke-miterlimit: 4; fill: rgb(42,54,78); fill-rule: nonzero; opacity: 1;"  paint-order="stroke"  transform=" translate(-5.083499999999999, 2.4319999999999995)" d="M 0 0 C -0.036 0.114 -0.023 0.237 0.033 0.341 C 0.092 0.445 0.188 0.522 0.302 0.554 C 0.998 0.743 1.719 0.839 2.441 0.839 C 2.836 0.839 3.235 0.812 3.636 0.75 C 4.554 0.611 5.47 0.309 6.337 -0.165 C 8.254 -1.218 9.574 -2.93 10.171 -4.862 C 10.205 -4.976 10.195 -5.099 10.137 -5.203 C 10.08 -5.31 9.982 -5.384 9.869 -5.416 C 9.173 -5.604 8.455 -5.701 7.732 -5.701 C 7.333 -5.701 6.932 -5.672 6.537 -5.611 C 5.611 -5.474 4.702 -5.176 3.837 -4.7 C 1.917 -3.646 0.598 -1.935 0 0 M 2.727 -6.694 C 3.841 -7.307 5.018 -7.695 6.202999999999999 -7.872 C 6.715999999999999 -7.947 7.231 -7.986 7.744 -7.986 C 9.245 -7.986 10.725 -7.659 12.084 -7.042 L 12.854 -6.697 L 12.741 -5.8580000000000005 C 12.31 -2.734 10.453 0.17 7.429 1.84 C 6.324 2.444 5.15 2.829 3.965 3.005 C 3.447 3.083 2.93 3.122 2.415 3.122 C 0.914 3.122 -0.561 2.8 -1.91 2.186 L -2.687 1.835 L -2.5669999999999997 0.996 C -2.138 -2.13 -0.2759999999999998 -5.045999999999999 2.727 -6.692 L 2.517 -7.078 z" stroke-linecap="round" />
</g>
		<g transform="matrix(2.536896633119969 0 0 -2.536896633119969 0.005581172592712846 -0.003424810454788485)"  >
<path style="stroke: none; stroke-width: 1; stroke-dasharray: none; stroke-linecap: butt; stroke-dashoffset: 0; stroke-linejoin: miter; stroke-miterlimit: 4; fill: rgb(42,54,78); fill-rule: nonzero; opacity: 1;"  paint-order="stroke"  transform=" translate(47.006000000000064, 0.38299999999999557)" d="M 0 0 C -0.267 -1.815 -1.1 -3.399 -2.313 -4.649 C -2.3960000000000004 -4.722 -2.6310000000000002 -4.918 -2.979 -5.261 L -3.2720000000000002 -4.962 L -3.273 -4.9639999999999995 L -3.013 -5.289999999999999 C -3.097 -5.356999999999999 -3.1959999999999997 -5.451999999999999 -3.3289999999999997 -5.547999999999999 C -3.4069999999999996 -5.6049999999999995 -3.4979999999999998 -5.632999999999999 -3.5869999999999997 -5.632999999999999 C -3.723 -5.632999999999999 -3.8549999999999995 -5.570999999999999 -3.9399999999999995 -5.453999999999999 C -4.997999999999999 -4.023999999999999 -5.613999999999999 -2.275999999999999 -5.613999999999999 -0.4209999999999985 C -5.613999999999999 -0.011999999999998512 -5.584999999999999 0.40600000000000147 -5.517999999999999 0.8240000000000016 C -5.183999999999999 3.0970000000000018 -3.964999999999999 5.012000000000001 -2.267999999999999 6.306000000000002 C -2.1689999999999987 6.380000000000002 -2.042999999999999 6.409000000000002 -1.9219999999999988 6.388000000000002 C -1.7989999999999988 6.364000000000002 -1.6919999999999988 6.291000000000001 -1.626999999999999 6.185000000000001 C -1.601999999999999 6.141000000000002 -1.5709999999999988 6.0950000000000015 -1.5369999999999988 6.041000000000001 C -1.527999999999999 6.029000000000002 -1.5189999999999988 6.017000000000001 -1.5109999999999988 6.003000000000001 L -0.774 4.796 C -0.708 4.751 -0.657 4.688 -0.624 4.613 C -0.165 3.564 0.09 2.417 0.09 1.229 C 0.09 0.822 0.061 0.413 0 0 M -85.346 11.521 C -84.76 12.836 -83.846 14.006 -82.664 14.884 C -82.063 15.323 -81.397 15.698 -80.735 15.940000000000001 L -80.66 15.977000000000002 C -79.667 16.358 -78.643 16.540000000000003 -77.636 16.540000000000003 C -76.441 16.540000000000003 -75.268 16.286 -74.19 15.807000000000002 C -74.083 15.761000000000003 -74.001 15.674000000000003 -73.958 15.563000000000002 C -73.917 15.454000000000002 -73.919 15.336000000000002 -73.968 15.229000000000003 C -74.553 13.914000000000003 -75.46900000000001 12.754000000000003 -76.649 11.875000000000004 C -77.249 11.431000000000003 -77.918 11.061000000000003 -78.653 10.775000000000004 C -79.649 10.391000000000004 -80.674 10.210000000000004 -81.68100000000001 10.210000000000004 C -82.87700000000001 10.210000000000004 -84.04700000000001 10.466000000000005 -85.12300000000002 10.943000000000005 C -85.22900000000001 10.991000000000005 -85.31200000000001 11.076000000000004 -85.35500000000002 11.185000000000006 C -85.39600000000002 11.295000000000005 -85.39400000000002 11.415000000000006 -85.34600000000002 11.521000000000006 M -8.66800000000002 -12.290999999999995 C -9.25500000000002 -13.605999999999995 -10.167000000000021 -14.773999999999996 -11.35100000000002 -15.650999999999994 C -11.95000000000002 -16.092999999999993 -12.61800000000002 -16.468999999999994 -13.34400000000002 -16.739999999999995 L -13.35500000000002 -16.743999999999996 C -14.35200000000002 -17.126999999999995 -15.37700000000002 -17.308999999999997 -16.38300000000002 -17.308999999999997 C -17.57700000000002 -17.308999999999997 -18.74700000000002 -17.051999999999996 -19.82300000000002 -16.577999999999996 C -19.932000000000023 -16.528999999999996 -20.01400000000002 -16.442999999999994 -20.057000000000023 -16.332999999999995 C -20.098000000000024 -16.224999999999994 -20.096000000000025 -16.103999999999996 -20.048000000000023 -15.997999999999994 C -19.460000000000022 -14.684999999999993 -18.544000000000022 -13.521999999999995 -17.364000000000022 -12.644999999999994 C -16.76400000000002 -12.199999999999994 -16.09300000000002 -11.829999999999995 -15.362000000000023 -11.544999999999995 C -14.366000000000023 -11.159999999999995 -13.344000000000023 -10.976999999999995 -12.335000000000022 -10.978999999999994 C -11.143000000000022 -10.976999999999993 -9.971000000000021 -11.232999999999993 -8.891000000000023 -11.710999999999993 C -8.784000000000024 -11.756999999999993 -8.702000000000023 -11.845999999999993 -8.661000000000023 -11.955999999999992 C -8.616000000000023 -12.063999999999993 -8.622000000000023 -12.182999999999993 -8.668000000000022 -12.290999999999993 M -5.220000000000022 -7.980999999999994 C -5.611000000000022 -8.564999999999994 -6.0060000000000215 -9.218999999999994 -6.376000000000022 -9.950999999999993 C -6.431000000000021 -10.056999999999993 -6.525000000000022 -10.136999999999993 -6.641000000000021 -10.170999999999994 C -6.758000000000021 -10.207999999999995 -6.8810000000000215 -10.191999999999995 -6.984000000000021 -10.131999999999994 C -8.62000000000002 -9.198999999999995 -10.483000000000022 -8.684999999999995 -12.38900000000002 -8.684999999999995 C -13.657000000000021 -8.684999999999995 -14.94400000000002 -8.908999999999995 -16.19400000000002 -9.394999999999996 C -17.12000000000002 -9.752999999999997 -17.97100000000002 -10.224999999999996 -18.73400000000002 -10.789999999999996 C -20.695000000000018 -12.249999999999996 -22.06600000000002 -14.316999999999997 -22.698000000000018 -16.611999999999995 L -22.92300000000002 -17.436999999999994 L -22.20200000000002 -17.895999999999994 C -20.47200000000002 -18.997999999999994 -18.44000000000002 -19.607999999999993 -16.35800000000002 -19.607999999999993 C -15.086000000000018 -19.607999999999993 -13.791000000000018 -19.378999999999994 -12.527000000000019 -18.895999999999994 L -12.521000000000019 -18.892999999999994 C -11.593000000000018 -18.535999999999994 -10.740000000000018 -18.064999999999994 -9.980000000000018 -17.500999999999994 C -9.736000000000018 -17.319999999999993 -9.505000000000019 -17.131999999999994 -9.282000000000018 -16.933999999999994 C -9.144000000000018 -16.807999999999993 -8.942000000000018 -16.784999999999993 -8.778000000000018 -16.872999999999994 C -8.616000000000017 -16.962999999999994 -8.527000000000019 -17.143999999999995 -8.556000000000019 -17.327999999999992 C -8.91400000000002 -19.590999999999994 -9.13500000000002 -21.93399999999999 -9.624000000000018 -24.69899999999999 C -9.669000000000018 -24.93399999999999 -9.889000000000019 -25.09099999999999 -10.126000000000019 -25.054999999999993 C -10.688000000000018 -24.964999999999993 -11.26000000000002 -24.91999999999999 -11.82700000000002 -24.91999999999999 C -14.04400000000002 -24.92199999999999 -16.27100000000002 -25.59099999999999 -18.17600000000002 -27.00999999999999 L -18.18100000000002 -27.01899999999999 C -20.80300000000002 -28.958999999999993 -22.26000000000002 -31.879999999999992 -22.48200000000002 -34.90899999999999 C -22.49700000000002 -35.10499999999999 -22.640000000000022 -35.267999999999994 -22.835000000000022 -35.30899999999999 C -23.524000000000022 -35.44299999999999 -24.26200000000002 -35.62499999999999 -25.03700000000002 -35.88099999999999 C -25.15400000000002 -35.916999999999994 -25.27700000000002 -35.907999999999994 -25.38400000000002 -35.849999999999994 C -25.489000000000022 -35.794 -25.56900000000002 -35.693999999999996 -25.600000000000023 -35.57899999999999 C -26.424000000000024 -32.559999999999995 -28.518000000000022 -29.906999999999993 -31.590000000000025 -28.540999999999993 C -32.501000000000026 -28.143999999999995 -33.435000000000024 -27.875999999999994 -34.37500000000003 -27.735999999999994 C -34.89300000000003 -27.658999999999992 -35.413000000000025 -27.619999999999994 -35.92600000000003 -27.619999999999994 C -37.81800000000003 -27.619999999999994 -39.67100000000003 -28.119999999999994 -41.29200000000003 -29.045999999999992 L -42.03700000000003 -29.47499999999999 L -41.85100000000003 -30.30899999999999 C -41.133000000000024 -33.53899999999999 -38.96400000000003 -36.41299999999999 -35.71700000000003 -37.85699999999999 L -35.70700000000003 -37.85799999999999 C -34.806000000000026 -38.264999999999986 -33.86800000000003 -38.53099999999999 -32.92700000000003 -38.66899999999999 C -32.62700000000003 -38.71499999999999 -32.33000000000003 -38.74699999999999 -32.03000000000003 -38.76299999999999 C -31.84600000000003 -38.77199999999999 -31.68800000000003 -38.89999999999999 -31.63600000000003 -39.07799999999999 C -31.582000000000033 -39.255999999999986 -31.64800000000003 -39.444999999999986 -31.79800000000003 -39.55699999999999 C -33.65400000000003 -40.90199999999999 -35.46600000000003 -42.40099999999999 -37.77000000000003 -44.008999999999986 C -37.84600000000003 -44.06299999999999 -37.93400000000003 -44.08799999999999 -38.02100000000003 -44.08799999999999 C -38.15500000000003 -44.08799999999999 -38.28900000000003 -44.02599999999999 -38.37500000000003 -43.90699999999999 C -40.01300000000003 -41.66199999999999 -42.492000000000026 -40.03699999999999 -45.45000000000003 -39.59999999999999 L -45.458000000000034 -39.59999999999999 C -45.988000000000035 -39.52099999999999 -46.512000000000036 -39.48299999999999 -47.02700000000004 -39.48299999999999 C -49.674000000000035 -39.47999999999999 -52.15700000000004 -40.47599999999999 -54.07500000000004 -42.13799999999999 C -54.22500000000004 -42.26999999999999 -54.442000000000036 -42.28399999999999 -54.60600000000004 -42.17199999999999 C -55.189000000000036 -41.77999999999999 -55.842000000000034 -41.38699999999999 -56.57500000000004 -41.01699999999999 C -56.68100000000004 -40.96299999999999 -56.76100000000004 -40.86699999999999 -56.79400000000004 -40.752999999999986 C -56.83100000000004 -40.636999999999986 -56.81600000000004 -40.51399999999999 -56.75600000000004 -40.408999999999985 C -55.822000000000045 -38.774999999999984 -55.310000000000045 -36.90799999999999 -55.310000000000045 -35.00199999999998 C -55.310000000000045 -33.73399999999998 -55.538000000000046 -32.44799999999998 -56.01600000000005 -31.19599999999998 C -56.37900000000005 -30.27099999999998 -56.85000000000005 -29.42099999999998 -57.41100000000005 -28.65599999999998 C -58.87200000000005 -26.697999999999983 -60.94100000000005 -25.32499999999998 -63.23500000000005 -24.69399999999998 L -64.06000000000004 -24.46999999999998 L -64.52000000000004 -25.18999999999998 C -65.62200000000004 -26.91899999999998 -66.23300000000003 -28.94999999999998 -66.23300000000003 -31.03399999999998 C -66.23300000000003 -32.30899999999998 -66.00400000000003 -33.59999999999998 -65.52000000000004 -34.86299999999998 L -65.51300000000003 -34.872999999999976 C -65.16000000000004 -35.79899999999998 -64.68600000000004 -36.65199999999997 -64.12500000000003 -37.41199999999998 C -63.94400000000003 -37.653999999999975 -63.75500000000003 -37.89099999999998 -63.55500000000003 -38.11299999999998 C -63.431000000000026 -38.250999999999976 -63.407000000000025 -38.45299999999998 -63.49600000000003 -38.61499999999998 C -63.583000000000034 -38.77699999999998 -63.76800000000003 -38.86599999999998 -63.95100000000003 -38.83799999999998 C -66.21400000000003 -38.47499999999998 -68.55700000000003 -38.25599999999998 -71.32000000000002 -37.76499999999998 C -71.55500000000002 -37.72399999999998 -71.71400000000003 -37.500999999999976 -71.67800000000003 -37.26499999999998 C -71.58900000000003 -36.70299999999998 -71.54500000000003 -36.13599999999998 -71.54500000000003 -35.56399999999998 C -71.54500000000003 -33.34999999999998 -72.21700000000003 -31.12099999999998 -73.59300000000003 -29.263999999999978 L -73.63900000000004 -29.20999999999998 C -75.58100000000003 -26.58799999999998 -78.50300000000004 -25.13199999999998 -81.53000000000004 -24.91099999999998 C -81.72900000000004 -24.89699999999998 -81.89300000000004 -24.75299999999998 -81.92900000000004 -24.55899999999998 C -82.06400000000005 -23.86799999999998 -82.24600000000004 -23.12799999999998 -82.50200000000004 -22.35199999999998 C -82.54100000000004 -22.23699999999998 -82.52900000000004 -22.11399999999998 -82.47400000000003 -22.007999999999978 C -82.41500000000003 -21.901999999999976 -82.31900000000003 -21.821999999999978 -82.20200000000003 -21.79099999999998 C -79.18100000000003 -20.96899999999998 -76.53000000000003 -18.87299999999998 -75.16400000000003 -15.798999999999978 C -74.76600000000003 -14.889999999999977 -74.50000000000003 -13.954999999999979 -74.35700000000003 -13.016999999999978 C -74.28200000000002 -12.501999999999978 -74.24600000000002 -11.983999999999979 -74.24600000000002 -11.469999999999978 C -74.24600000000002 -9.575999999999977 -74.74700000000003 -7.721999999999977 -75.66900000000003 -6.099999999999977 L -76.09500000000003 -5.354999999999977 L -76.93000000000002 -5.542999999999977 C -80.16300000000003 -6.257999999999977 -83.02800000000002 -8.427999999999976 -84.48000000000002 -11.686999999999976 C -84.88400000000001 -12.589999999999977 -85.15200000000002 -13.525999999999977 -85.29200000000002 -14.465999999999976 C -85.33800000000002 -14.762999999999977 -85.37000000000002 -15.062999999999976 -85.38700000000001 -15.360999999999976 C -85.39900000000002 -15.545999999999976 -85.52400000000002 -15.702999999999976 -85.70100000000001 -15.755999999999975 C -85.88000000000001 -15.809999999999976 -86.07100000000001 -15.741999999999976 -86.18 -15.594999999999976 C -87.524 -13.738999999999976 -89.02300000000001 -11.925999999999975 -90.631 -9.627999999999975 C -90.769 -9.428999999999975 -90.722 -9.159999999999975 -90.529 -9.020999999999976 C -88.286 -7.380999999999976 -86.663 -4.903999999999976 -86.223 -1.951999999999976 L -86.223 -1.936999999999976 C -86.143 -1.408999999999976 -86.107 -0.882999999999976 -86.107 -0.364999999999976 C -86.107 2.282000000000024 -87.104 4.765000000000024 -88.762 6.683000000000024 C -88.89 6.833000000000024 -88.905 7.050000000000024 -88.795 7.2140000000000235 C -88.404 7.7990000000000235 -88.01 8.450000000000024 -87.64 9.180000000000023 C -87.584 9.289000000000023 -87.49 9.366000000000023 -87.374 9.402000000000022 C -87.258 9.436000000000023 -87.13499999999999 9.422000000000022 -87.03099999999999 9.361000000000022 C -85.39899999999999 8.431000000000022 -83.535 7.916000000000022 -81.63 7.916000000000022 C -80.36 7.916000000000022 -79.074 8.143000000000022 -77.81899999999999 8.624000000000022 C -76.89299999999999 8.987000000000021 -76.04399999999998 9.458000000000022 -75.27799999999999 10.021000000000022 C -73.32 11.479000000000022 -71.94699999999999 13.547000000000022 -71.317 15.843000000000021 L -71.08999999999999 16.66800000000002 L -71.81099999999999 17.12500000000002 C -73.54199999999999 18.22900000000002 -75.573 18.841000000000022 -77.654 18.83900000000002 C -78.934 18.83900000000002 -80.232 18.61200000000002 -81.453 18.14000000000002 L -81.497 18.12400000000002 C -82.42 17.77000000000002 -83.273 17.29600000000002 -84.035 16.73000000000002 C -84.277 16.554000000000023 -84.512 16.36300000000002 -84.73599999999999 16.16300000000002 C -84.874 16.039000000000023 -85.07499999999999 16.015000000000022 -85.23899999999999 16.10400000000002 C -85.401 16.19400000000002 -85.49099999999999 16.37500000000002 -85.46099999999998 16.55900000000002 C -85.09899999999999 18.822000000000017 -84.87899999999999 21.163000000000018 -84.38799999999999 23.92800000000002 C -84.347 24.163000000000018 -84.12499999999999 24.322000000000017 -83.88999999999999 24.28400000000002 C -83.32699999999998 24.19700000000002 -82.75799999999998 24.15300000000002 -82.18799999999999 24.15300000000002 C -79.975 24.15300000000002 -77.74999999999999 24.82500000000002 -75.838 26.24200000000002 L -75.83399999999999 26.247000000000018 C -73.21 28.188000000000017 -71.75299999999999 31.109000000000016 -71.53299999999999 34.14100000000002 C -71.52099999999999 34.33600000000002 -71.37599999999999 34.50100000000002 -71.17999999999999 34.53700000000002 C -70.491 34.67300000000002 -69.75099999999999 34.85600000000002 -68.973 35.11000000000002 C -68.859 35.14600000000002 -68.736 35.13700000000002 -68.629 35.07900000000002 C -68.52300000000001 35.02100000000002 -68.44500000000001 34.92400000000002 -68.414 34.80800000000002 C -67.59 31.79100000000002 -65.493 29.13800000000002 -62.423 27.77200000000002 C -61.511 27.37400000000002 -60.579 27.105000000000018 -59.641000000000005 26.96500000000002 C -59.12500000000001 26.890000000000022 -58.608000000000004 26.85400000000002 -58.093 26.85400000000002 C -56.202000000000005 26.85400000000002 -54.35 27.35600000000002 -52.723000000000006 28.27800000000002 L -51.979000000000006 28.70600000000002 L -52.163000000000004 29.53800000000002 C -52.88 32.77100000000002 -55.05200000000001 35.642000000000024 -58.29900000000001 37.08600000000002 L -58.30800000000001 37.08800000000002 C -59.21200000000001 37.49400000000002 -60.14800000000001 37.76000000000002 -61.086000000000006 37.90000000000002 C -61.383 37.94600000000002 -61.68300000000001 37.97800000000002 -61.983000000000004 37.99200000000002 C -62.167 38.00400000000002 -62.327000000000005 38.13000000000002 -62.377 38.30600000000002 C -62.431000000000004 38.48600000000002 -62.365 38.676000000000016 -62.215 38.78500000000002 C -60.361000000000004 40.134000000000015 -58.550000000000004 41.631000000000014 -56.248000000000005 43.23600000000002 C -56.05200000000001 43.37400000000002 -55.784000000000006 43.32800000000002 -55.642 43.13700000000002 C -54.002 40.89100000000002 -51.521 39.264000000000024 -48.627 38.83300000000002 L -48.557 38.82900000000002 C -48.033 38.75100000000002 -47.511 38.715000000000025 -46.993 38.715000000000025 C -44.347 38.71300000000002 -41.863 39.71100000000003 -39.938 41.370000000000026 C -39.788000000000004 41.498000000000026 -39.571000000000005 41.51300000000003 -39.407000000000004 41.401000000000025 C -38.823 41.010000000000026 -38.172000000000004 40.61800000000002 -37.440000000000005 40.24600000000002 C -37.33200000000001 40.19200000000002 -37.255 40.096000000000025 -37.221000000000004 39.97900000000002 C -37.185 39.86400000000002 -37.198 39.74000000000002 -37.259 39.63600000000002 C -38.193 38.00400000000002 -38.71 36.14100000000002 -38.708 34.235000000000014 C -38.708 32.966000000000015 -38.485 31.682000000000013 -37.998999999999995 30.430000000000014 C -37.63699999999999 29.501000000000015 -37.166 28.650000000000013 -36.602 27.886000000000013 C -35.141999999999996 25.925000000000015 -33.074 24.557000000000013 -30.778999999999996 23.923000000000012 L -29.954999999999995 23.70100000000001 L -29.495999999999995 24.41900000000001 C -28.394999999999996 26.150000000000013 -27.783999999999995 28.18300000000001 -27.783999999999995 30.263000000000012 C -27.783999999999995 31.54100000000001 -28.013999999999996 32.838000000000015 -28.495999999999995 34.097000000000016 L -28.500999999999994 34.103000000000016 C -28.850999999999996 35.02800000000001 -29.326999999999995 35.88200000000002 -29.892999999999994 36.64400000000001 C -30.068999999999992 36.88500000000001 -30.259999999999994 37.11700000000001 -30.460999999999995 37.34200000000001 C -30.583999999999996 37.48200000000001 -30.605999999999995 37.683000000000014 -30.516999999999996 37.84500000000001 C -30.426999999999996 38.00700000000001 -30.245999999999995 38.09600000000001 -30.062999999999995 38.067000000000014 C -27.799999999999997 37.707000000000015 -25.458999999999996 37.487000000000016 -22.691999999999993 36.996000000000016 C -22.45799999999999 36.95500000000002 -22.300999999999995 36.735000000000014 -22.336999999999993 36.49800000000002 C -22.427999999999994 35.93500000000002 -22.472999999999992 35.36400000000002 -22.470999999999993 34.79600000000002 C -22.470999999999993 32.58200000000002 -21.802999999999994 30.36000000000002 -20.386999999999993 28.45200000000002 L -20.37399999999999 28.442000000000018 C -18.432999999999993 25.819000000000017 -15.512999999999991 24.363000000000017 -12.483999999999991 24.14100000000002 C -12.28899999999999 24.12900000000002 -12.124999999999991 23.98400000000002 -12.085999999999991 23.79000000000002 C -11.947999999999992 23.09900000000002 -11.767999999999992 22.35900000000002 -11.512999999999991 21.58100000000002 C -11.476999999999991 21.46700000000002 -11.485999999999992 21.344000000000023 -11.54299999999999 21.23700000000002 C -11.59999999999999 21.131000000000018 -11.698999999999991 21.05300000000002 -11.81299999999999 21.02200000000002 C -14.83299999999999 20.198000000000018 -17.48199999999999 18.10400000000002 -18.84899999999999 15.03100000000002 C -19.24699999999999 14.12200000000002 -19.51899999999999 13.18700000000002 -19.655999999999988 12.24900000000002 C -19.73299999999999 11.73000000000002 -19.771999999999988 11.21300000000002 -19.771999999999988 10.69900000000002 C -19.771999999999988 8.80800000000002 -19.270999999999987 6.95800000000002 -18.34299999999999 5.329000000000019 L -17.92099999999999 4.586000000000019 L -17.08399999999999 4.772000000000019 C -13.84899999999999 5.488000000000019 -10.97699999999999 7.662000000000019 -9.54999999999999 10.870000000000019 L -9.53299999999999 10.916000000000018 C -9.12899999999999 11.818000000000017 -8.85999999999999 12.756000000000018 -8.71999999999999 13.696000000000017 C -8.67699999999999 13.994000000000018 -8.64599999999999 14.291000000000018 -8.62899999999999 14.594000000000017 C -8.61999999999999 14.780000000000017 -8.489999999999991 14.937000000000017 -8.31299999999999 14.990000000000018 C -8.13599999999999 15.041000000000018 -7.94499999999999 14.976000000000019 -7.83499999999999 14.826000000000018 C -6.49099999999999 12.969000000000019 -4.9899999999999896 11.158000000000019 -3.38199999999999 8.854000000000017 C -3.246 8.658 -3.291 8.39 -3.484 8.25 C -5.732 6.61 -7.356 4.129 -7.787 1.235 L -7.787 1.231 L -8.225 1.231 L -7.792 1.165 C -7.872 0.636 -7.911 0.1140000000000001 -7.911 -0.4039999999999999 C -7.911 -3.049 -6.917 -5.528 -5.2509999999999994 -7.451 C -5.1209999999999996 -7.601 -5.111 -7.816 -5.22 -7.981 M -10.273 -27.817999999999998 C -10.283999999999999 -27.88 -10.298 -27.935999999999996 -10.31 -27.988 C -10.312000000000001 -28.006 -10.315000000000001 -28.023 -10.318 -28.04 L -10.651 -29.416 C -10.639 -29.495 -10.645999999999999 -29.576 -10.674 -29.651 C -11.232999999999999 -31.076999999999998 -12.178999999999998 -32.373 -13.495999999999999 -33.352 C -14.967999999999998 -34.44499999999999 -16.674999999999997 -34.977 -18.413999999999998 -35.004 C -18.517999999999997 -34.995999999999995 -18.823999999999998 -34.97 -19.360999999999997 -34.963 C -19.478999999999996 -34.952 -19.615 -34.945 -19.769999999999996 -34.924 C -19.885999999999996 -34.907 -19.988999999999997 -34.844 -20.060999999999996 -34.749 C -20.129999999999995 -34.655 -20.157999999999998 -34.539 -20.142999999999997 -34.424 C -19.817999999999998 -32.275999999999996 -18.690999999999995 -30.258 -16.814999999999998 -28.868 C -15.309999999999999 -27.744999999999997 -13.550999999999998 -27.206999999999997 -11.802999999999997 -27.209 C -11.415999999999997 -27.207 -11.026999999999997 -27.232 -10.635999999999997 -27.291 C -10.517999999999997 -27.309 -10.407999999999998 -27.376 -10.337999999999997 -27.475 C -10.270999999999997 -27.576 -10.246999999999998 -27.700000000000003 -10.272999999999998 -27.818 M -28.071999999999996 -35.684 C -28.119999999999994 -35.791999999999994 -28.206999999999997 -35.872 -28.315999999999995 -35.915 C -29.287999999999997 -36.285 -30.324999999999996 -36.481 -31.373999999999995 -36.481 C -31.780999999999995 -36.481 -32.187999999999995 -36.449000000000005 -32.586 -36.394 L -32.525 -35.961 L -32.591 -36.394 C -33.328 -36.28 -34.063 -36.074999999999996 -34.82 -35.729 L -34.779 -35.751 C -36.908 -34.806 -38.453 -33.080999999999996 -39.236000000000004 -31.058 C -39.278000000000006 -30.948999999999998 -39.275000000000006 -30.826 -39.228 -30.72 C -39.182 -30.615 -39.095 -30.529999999999998 -38.985 -30.488999999999997 C -38.016999999999996 -30.116999999999997 -36.984 -29.923999999999996 -35.939 -29.923999999999996 C -35.536 -29.921999999999997 -35.128 -29.949999999999996 -34.717 -30.012999999999995 C -33.977 -30.124999999999993 -33.243 -30.334999999999994 -32.521 -30.652999999999995 C -30.392 -31.598999999999997 -28.849 -33.321 -28.065 -35.346999999999994 C -28.021 -35.455999999999996 -28.024 -35.57699999999999 -28.072000000000003 -35.684 M -40.429 -45.757 C -40.478 -45.788999999999994 -40.527 -45.821 -40.577000000000005 -45.854 C -40.59100000000001 -45.863 -40.605000000000004 -45.874 -40.620000000000005 -45.883 L -41.82300000000001 -46.616 C -41.86800000000001 -46.682 -41.93300000000001 -46.734 -42.00800000000001 -46.768 C -43.05800000000001 -47.228 -44.20600000000001 -47.481 -45.39600000000001 -47.481 C -45.80100000000001 -47.481 -46.21200000000001 -47.45 -46.62100000000001 -47.393 C -48.42700000000001 -47.126 -50.00500000000001 -46.302 -51.26000000000001 -45.091 C -51.299000000000014 -45.045 -51.509000000000015 -44.79 -51.92200000000001 -44.370000000000005 C -51.991000000000014 -44.285000000000004 -52.07700000000001 -44.190000000000005 -52.16900000000001 -44.06700000000001 C -52.23900000000001 -43.974000000000004 -52.26900000000001 -43.857000000000006 -52.25100000000001 -43.74100000000001 C -52.235000000000014 -43.626000000000005 -52.17200000000001 -43.523 -52.07700000000001 -43.45300000000001 C -50.649000000000015 -42.39500000000001 -48.90100000000001 -41.78000000000001 -47.04400000000001 -41.78200000000001 C -46.63600000000001 -41.78000000000001 -46.22000000000001 -41.80900000000001 -45.799000000000014 -41.875000000000014 C -43.52600000000001 -42.20900000000002 -41.609000000000016 -43.42500000000001 -40.31800000000001 -45.125000000000014 C -40.24500000000001 -45.22100000000001 -40.21400000000001 -45.344000000000015 -40.23300000000001 -45.46500000000002 C -40.25500000000001 -45.58600000000002 -40.32700000000001 -45.692000000000014 -40.42900000000001 -45.75700000000002 M -58.33200000000001 -38.50000000000002 C -58.38000000000001 -38.60600000000002 -58.46800000000001 -38.69000000000002 -58.57600000000001 -38.73100000000002 C -58.626000000000005 -38.751000000000026 -58.67900000000001 -38.76200000000002 -58.73100000000001 -38.76200000000002 C -58.793000000000006 -38.76200000000002 -58.85500000000001 -38.74800000000002 -58.91300000000001 -38.72200000000002 C -60.23000000000001 -38.13700000000002 -61.39800000000001 -37.224000000000025 -62.27600000000001 -36.041000000000025 C -62.71300000000001 -35.444000000000024 -63.08600000000001 -34.78400000000003 -63.36100000000001 -34.05500000000003 L -63.37100000000001 -34.03700000000003 C -63.75200000000001 -33.04200000000003 -63.93400000000001 -32.01900000000003 -63.93400000000001 -31.01200000000003 C -63.93400000000001 -29.81500000000003 -63.67800000000001 -28.64300000000003 -63.19900000000001 -27.566000000000027 C -63.100000000000016 -27.345000000000027 -62.841000000000015 -27.245000000000026 -62.62100000000001 -27.345000000000027 C -61.30600000000001 -27.932000000000027 -60.14300000000001 -28.845000000000027 -59.26800000000001 -30.025000000000027 C -58.821000000000005 -30.62500000000003 -58.45100000000001 -31.295000000000027 -58.16700000000001 -32.032000000000025 C -57.78300000000001 -33.026000000000025 -57.60200000000001 -34.04800000000002 -57.60200000000001 -35.05700000000002 C -57.60200000000001 -36.251000000000026 -57.85800000000001 -37.419000000000025 -58.33200000000001 -38.50000000000002 M -73.912 -36.74600000000002 C -73.929 -36.86900000000002 -73.995 -36.97900000000002 -74.096 -37.05100000000002 C -74.17 -37.10300000000002 -74.25800000000001 -37.130000000000024 -74.34700000000001 -37.130000000000024 C -74.379 -37.130000000000024 -74.412 -37.127000000000024 -74.444 -37.11900000000002 C -74.507 -37.10400000000002 -74.562 -37.09200000000002 -74.619 -37.081000000000024 C -74.633 -37.078000000000024 -74.647 -37.07600000000002 -74.661 -37.07300000000002 L -76.043 -36.74100000000002 C -76.12 -36.75400000000002 -76.19900000000001 -36.74600000000002 -76.272 -36.71800000000002 C -77.69800000000001 -36.15900000000002 -78.997 -35.21400000000002 -79.974 -33.896000000000015 C -81.068 -32.424000000000014 -81.601 -30.714000000000016 -81.62700000000001 -28.964000000000013 C -81.61800000000001 -28.868000000000013 -81.59100000000001 -28.55900000000001 -81.58600000000001 -28.033000000000012 C -81.57400000000001 -27.917000000000012 -81.56700000000001 -27.77700000000001 -81.54200000000002 -27.61700000000001 C -81.50300000000001 -27.37800000000001 -81.28100000000002 -27.21600000000001 -81.04400000000001 -27.252000000000013 C -78.897 -27.574000000000012 -76.88100000000001 -28.703000000000014 -75.49100000000001 -30.574000000000012 C -74.37100000000001 -32.08300000000001 -73.83400000000002 -33.841000000000015 -73.83400000000002 -35.58600000000001 C -73.83400000000002 -35.97600000000001 -73.86100000000002 -36.360000000000014 -73.91200000000002 -36.74600000000001 M -83.10400000000001 -16.01700000000001 C -83.10400000000001 -15.61300000000001 -83.07800000000002 -15.20500000000001 -83.01500000000001 -14.80100000000001 C -82.90400000000001 -14.06500000000001 -82.69800000000002 -13.32800000000001 -82.35000000000001 -12.570000000000011 L -82.37200000000001 -12.611000000000011 C -81.42600000000002 -10.482000000000012 -79.70500000000001 -8.938000000000011 -77.67900000000002 -8.15400000000001 C -77.57200000000002 -8.11300000000001 -77.44900000000001 -8.118000000000011 -77.34300000000002 -8.16400000000001 C -77.23700000000002 -8.211000000000011 -77.15400000000002 -8.30000000000001 -77.11300000000001 -8.40800000000001 C -76.74100000000001 -9.37300000000001 -76.54700000000001 -10.40300000000001 -76.54700000000001 -11.44700000000001 C -76.54700000000001 -11.85400000000001 -76.57700000000001 -12.26300000000001 -76.63700000000001 -12.676000000000009 C -76.74300000000001 -13.414000000000009 -76.95800000000001 -14.148000000000009 -77.27500000000002 -14.86800000000001 C -78.22300000000001 -17.00400000000001 -79.94400000000002 -18.54400000000001 -81.96800000000002 -19.32700000000001 C -82.01900000000002 -19.34700000000001 -82.07300000000002 -19.35600000000001 -82.12500000000001 -19.35600000000001 C -82.18800000000002 -19.35600000000001 -82.24900000000001 -19.343000000000007 -82.30600000000001 -19.31600000000001 C -82.41300000000001 -19.271000000000008 -82.495 -19.18200000000001 -82.53600000000002 -19.07300000000001 C -82.90900000000002 -18.10400000000001 -83.10400000000001 -17.06600000000001 -83.10400000000001 -16.01700000000001 M -91.74500000000002 -7.073000000000009 C -91.82300000000002 -7.133000000000009 -91.91700000000002 -7.1640000000000095 -92.01200000000001 -7.1640000000000095 C -92.03800000000001 -7.1640000000000095 -92.06500000000001 -7.161000000000009 -92.09100000000001 -7.155000000000009 C -92.21400000000001 -7.134000000000009 -92.31800000000001 -7.060000000000009 -92.38400000000001 -6.956000000000009 C -92.41600000000001 -6.903000000000009 -92.44600000000001 -6.85600000000001 -92.47300000000001 -6.814000000000009 C -92.48500000000001 -6.800000000000009 -92.49500000000002 -6.784000000000009 -92.50400000000002 -6.770000000000009 L -93.24200000000002 -5.564000000000009 C -93.30700000000002 -5.519000000000009 -93.36000000000001 -5.455000000000009 -93.39200000000002 -5.381000000000009 C -93.84900000000002 -4.33200000000001 -94.10500000000002 -3.184000000000009 -94.10500000000002 -1.991000000000009 C -94.10500000000002 -1.588000000000009 -94.07600000000002 -1.178000000000009 -94.01600000000002 -0.769000000000009 C -93.74700000000001 1.041999999999991 -92.91600000000003 2.627999999999991 -91.69900000000001 3.879999999999991 C -91.62900000000002 3.940999999999991 -91.39300000000001 4.141999999999991 -91.00800000000001 4.515999999999991 C -90.91600000000001 4.593999999999991 -90.81200000000001 4.685999999999991 -90.68800000000002 4.776999999999991 C -90.59400000000002 4.8469999999999915 -90.47900000000001 4.8759999999999915 -90.36200000000002 4.858999999999991 C -90.24600000000002 4.842999999999991 -90.14200000000002 4.779999999999991 -90.07500000000002 4.685999999999991 C -89.01800000000001 3.256999999999991 -88.40600000000002 1.505999999999991 -88.40600000000002 -0.34800000000000875 C -88.40600000000002 -0.7560000000000087 -88.43500000000002 -1.1730000000000087 -88.49600000000002 -1.5910000000000089 C -88.82900000000002 -3.8660000000000085 -90.04800000000003 -5.7810000000000095 -91.74500000000002 -7.073000000000009 M -83.74000000000002 27.056999999999995 C -83.72800000000002 27.110999999999994 -83.71500000000002 27.165999999999997 -83.70300000000002 27.221999999999994 C -83.70100000000002 27.237999999999992 -83.69800000000002 27.253999999999994 -83.69400000000002 27.269999999999992 L -83.36300000000001 28.638999999999992 C -83.37800000000001 28.71899999999999 -83.37200000000001 28.801999999999992 -83.34100000000001 28.879999999999992 C -82.781 30.30699999999999 -81.83500000000001 31.60299999999999 -80.51800000000001 32.58299999999999 C -79.04500000000002 33.67599999999999 -77.33800000000001 34.20599999999999 -75.59000000000002 34.23499999999999 C -75.49600000000002 34.22599999999999 -75.18600000000002 34.19899999999999 -74.65400000000001 34.193999999999996 C -74.53800000000001 34.181999999999995 -74.403 34.175 -74.248 34.153 C -74.132 34.135999999999996 -74.02600000000001 34.076 -73.956 33.981 C -73.885 33.887 -73.85600000000001 33.769 -73.87400000000001 33.652 C -74.197 31.508000000000003 -75.32400000000001 29.489 -77.19800000000001 28.099 C -78.70700000000001 26.977 -80.46700000000001 26.442 -82.21700000000001 26.442 C -82.60400000000001 26.442 -82.99100000000001 26.469 -83.37300000000002 26.518 C -83.49400000000001 26.535 -83.60700000000001 26.603 -83.67700000000002 26.707 C -83.74800000000002 26.808 -83.77100000000002 26.936 -83.74000000000002 27.057000000000002 M -65.94100000000003 34.912000000000006 C -65.89500000000002 35.016000000000005 -65.80600000000003 35.101000000000006 -65.69900000000003 35.142 C -64.72700000000003 35.517 -63.688000000000024 35.712 -62.63800000000003 35.712 C -62.23700000000002 35.712 -61.831000000000024 35.686 -61.42700000000003 35.623000000000005 L -61.49000000000003 35.190000000000005 L -61.42500000000003 35.623000000000005 C -60.692000000000036 35.51200000000001 -59.95900000000003 35.306000000000004 -59.250000000000036 34.986000000000004 L -59.232000000000035 34.982000000000006 C -57.10600000000004 34.034000000000006 -55.55900000000003 32.31300000000001 -54.778000000000034 30.285000000000007 C -54.735000000000035 30.176000000000005 -54.73900000000003 30.057000000000006 -54.78600000000004 29.948000000000008 C -54.833000000000034 29.842000000000006 -54.921000000000035 29.76000000000001 -55.02900000000004 29.71900000000001 C -55.99700000000004 29.349000000000007 -57.02900000000004 29.15500000000001 -58.07100000000004 29.15500000000001 C -58.48000000000004 29.15500000000001 -58.89100000000004 29.18500000000001 -59.29900000000004 29.245000000000008 C -60.03500000000004 29.35400000000001 -60.77100000000004 29.56600000000001 -61.493000000000045 29.88300000000001 C -63.62500000000004 30.83100000000001 -65.16500000000005 32.55000000000001 -65.95100000000005 34.57600000000001 C -65.99200000000005 34.68200000000001 -65.98900000000005 34.806000000000004 -65.94100000000005 34.912000000000006 M -53.57900000000004 44.992000000000004 C -53.53400000000004 45.022000000000006 -53.484000000000044 45.053000000000004 -53.435000000000045 45.084 C -53.42100000000004 45.094 -53.408000000000044 45.104000000000006 -53.39300000000004 45.11300000000001 L -52.18300000000004 45.854000000000006 C -52.13800000000004 45.916000000000004 -52.07700000000004 45.967000000000006 -52.005000000000045 45.998000000000005 C -50.956000000000046 46.45700000000001 -49.810000000000045 46.71600000000001 -48.62000000000005 46.71600000000001 C -48.216000000000044 46.71600000000001 -47.80500000000005 46.687000000000005 -47.392000000000046 46.62400000000001 C -45.58200000000004 46.35500000000001 -43.99800000000005 45.52600000000001 -42.743000000000045 44.30700000000001 C -42.694000000000045 44.24700000000001 -42.48600000000005 44.00300000000001 -42.10100000000004 43.60900000000001 C -42.02900000000004 43.52100000000001 -41.938000000000045 43.42200000000001 -41.844000000000044 43.29600000000001 C -41.773000000000046 43.202000000000005 -41.746000000000045 43.084 -41.764000000000046 42.971000000000004 C -41.780000000000044 42.854000000000006 -41.844000000000044 42.75000000000001 -41.93600000000004 42.68300000000001 C -43.36400000000004 41.63100000000001 -45.10700000000004 41.01400000000001 -46.95800000000004 41.01400000000001 L -46.969000000000044 41.01400000000001 C -47.38200000000004 41.01400000000001 -47.798000000000044 41.04300000000001 -48.21400000000004 41.10600000000001 C -50.487000000000045 41.44000000000001 -52.40400000000004 42.65800000000001 -53.69500000000004 44.35500000000001 C -53.77200000000004 44.45300000000001 -53.801000000000045 44.57800000000001 -53.780000000000044 44.69900000000001 C -53.75600000000004 44.823000000000015 -53.68300000000004 44.92600000000001 -53.57900000000004 44.99200000000001 M -35.682000000000045 37.73100000000001 C -35.63500000000005 37.83800000000001 -35.545000000000044 37.92000000000001 -35.43700000000005 37.961000000000006 C -35.331000000000046 38.004000000000005 -35.20700000000005 37.999 -35.100000000000044 37.95400000000001 C -33.788000000000046 37.36600000000001 -32.615000000000045 36.45700000000001 -31.740000000000045 35.27000000000001 C -31.298000000000044 34.67000000000001 -30.922000000000043 34.00500000000001 -30.682000000000045 33.34100000000001 L -30.645000000000046 33.26800000000001 C -30.265000000000047 32.272000000000006 -30.082000000000047 31.24900000000001 -30.082000000000047 30.244000000000007 C -30.084000000000046 29.046000000000006 -30.340000000000046 27.87600000000001 -30.81300000000005 26.798000000000005 C -30.861000000000047 26.691000000000006 -30.94700000000005 26.607000000000006 -31.056000000000047 26.566000000000006 C -31.107000000000046 26.546000000000006 -31.16200000000005 26.536000000000005 -31.216000000000047 26.536000000000005 C -31.276000000000046 26.536000000000005 -31.338000000000047 26.549000000000007 -31.394000000000048 26.573000000000004 C -32.709000000000046 27.163000000000004 -33.87000000000005 28.077000000000005 -34.74700000000005 29.257000000000005 C -35.19200000000005 29.856000000000005 -35.56300000000005 30.526000000000003 -35.84800000000005 31.262000000000004 C -36.23100000000005 32.257000000000005 -36.41500000000005 33.28 -36.41500000000005 34.289 C -36.413000000000046 35.483000000000004 -36.15900000000005 36.653 -35.68200000000005 37.731 M -20.102000000000054 35.983000000000004 C -20.084000000000053 36.106 -20.020000000000053 36.213 -19.918000000000053 36.283 C -19.81800000000005 36.353 -19.695000000000054 36.377 -19.576000000000054 36.351 C -19.517000000000053 36.338 -19.460000000000054 36.324999999999996 -19.402000000000054 36.311 C -19.387000000000054 36.309 -19.370000000000054 36.306 -19.354000000000056 36.302 L -17.980000000000057 35.971 C -17.901000000000057 35.985 -17.819000000000056 35.977999999999994 -17.744000000000057 35.949 C -16.315000000000058 35.388999999999996 -15.020000000000056 34.445 -14.040000000000056 33.128 C -12.949000000000057 31.658 -12.417000000000057 29.951 -12.389000000000056 28.205 C -12.396000000000056 28.118 -12.424000000000056 27.804 -12.430000000000057 27.25 C -12.441000000000056 27.144 -12.447000000000056 27.008 -12.471000000000057 26.849 C -12.505000000000058 26.631 -12.692000000000057 26.476 -12.905000000000056 26.476 C -12.927000000000056 26.476 -12.949000000000057 26.477999999999998 -12.971000000000057 26.480999999999998 C -15.117000000000058 26.805 -17.134000000000057 27.932 -18.524000000000058 29.808 C -19.646000000000058 31.317 -20.184000000000058 33.077 -20.181000000000058 34.825 C -20.181000000000058 35.211000000000006 -20.15600000000006 35.599000000000004 -20.102000000000057 35.983000000000004 M -10.913000000000057 15.246000000000006 C -10.913000000000057 14.843000000000005 -10.942000000000057 14.438000000000006 -10.998000000000058 14.037000000000006 L -11.431000000000058 14.098000000000006 L -10.998000000000058 14.030000000000006 C -11.108000000000057 13.297000000000006 -11.313000000000057 12.565000000000007 -11.641000000000059 11.851000000000006 L -11.645000000000058 11.842000000000006 C -12.589000000000059 9.712000000000007 -14.311000000000059 8.169000000000006 -16.33700000000006 7.3860000000000054 C -16.38900000000006 7.366000000000006 -16.44200000000006 7.355000000000006 -16.49700000000006 7.355000000000006 C -16.55700000000006 7.355000000000006 -16.61700000000006 7.368000000000006 -16.67300000000006 7.3940000000000055 C -16.78100000000006 7.441000000000005 -16.86300000000006 7.529000000000005 -16.90400000000006 7.637000000000006 C -17.27400000000006 8.604000000000006 -17.46900000000006 9.640000000000006 -17.46900000000006 10.684000000000006 C -17.46900000000006 11.090000000000007 -17.441000000000063 11.501000000000007 -17.37800000000006 11.907000000000007 C -17.27000000000006 12.647000000000007 -17.05400000000006 13.380000000000008 -16.73800000000006 14.103000000000007 C -15.79000000000006 16.233000000000008 -14.07000000000006 17.773000000000007 -12.047000000000061 18.556000000000008 C -11.938000000000061 18.60000000000001 -11.81700000000006 18.59700000000001 -11.709000000000062 18.549000000000007 C -11.604000000000061 18.500000000000007 -11.521000000000061 18.414000000000005 -11.479000000000061 18.305000000000007 C -11.106000000000062 17.333000000000006 -10.91300000000006 16.29500000000001 -10.91300000000006 15.246000000000006 M -8.45500000000006 20.140000000000008 C -9.912000000000061 23.053000000000008 -10.12600000000006 25.81600000000001 -10.12600000000006 27.149000000000008 C -10.10800000000006 27.149000000000008 -10.12900000000006 27.16100000000001 -10.12200000000006 27.21900000000001 C -10.09900000000006 27.517000000000007 -10.08700000000006 27.81600000000001 -10.08900000000006 28.116000000000007 C -10.08900000000006 30.340000000000007 -10.767000000000062 32.57600000000001 -12.188000000000061 34.49100000000001 C -14.094000000000062 37.06100000000001 -16.943000000000062 38.52000000000001 -19.970000000000063 38.788000000000004 C -26.188000000000063 40.137 -30.112000000000062 39.982000000000006 -34.26000000000006 41.387 C -37.369000000000064 42.427 -39.47900000000006 44.244 -40.43700000000006 45.207 C -42.06600000000006 47.133 -44.36000000000006 48.502 -47.04600000000006 48.899 C -47.57400000000006 48.976 -48.09800000000006 49.015 -48.61300000000006 49.015 C -51.20500000000006 49.015 -53.63900000000007 48.064 -55.585000000000065 46.433 C -60.939000000000064 42.989 -63.603000000000065 40.105 -67.52900000000007 38.167 C -70.45200000000007 36.706 -73.22000000000007 36.498000000000005 -74.54800000000007 36.498000000000005 L -74.57200000000007 36.498000000000005 L -74.57200000000007 36.505 L -74.59600000000007 36.498000000000005 C -74.87900000000008 36.523 -75.16400000000007 36.537000000000006 -75.44900000000007 36.537000000000006 C -75.47100000000007 36.537000000000006 -75.49300000000007 36.537000000000006 -75.51500000000007 36.537000000000006 C -77.73700000000007 36.537000000000006 -79.96800000000007 35.85900000000001 -81.88300000000007 34.43600000000001 C -84.45300000000006 32.528000000000006 -85.91100000000007 29.678000000000008 -86.17700000000006 26.653000000000006 C -87.53100000000006 20.435000000000006 -87.37400000000007 16.508000000000006 -88.77900000000007 12.362000000000005 C -89.81300000000007 9.262000000000006 -91.62500000000007 7.157000000000005 -92.58900000000007 6.189000000000005 C -94.52100000000007 4.563000000000006 -95.89200000000007 2.2650000000000055 -96.28800000000007 -0.4279999999999946 C -96.36600000000007 -0.9519999999999946 -96.40400000000007 -1.4769999999999945 -96.40400000000007 -1.9909999999999946 C -96.40400000000007 -4.580999999999994 -95.45700000000006 -7.013999999999994 -93.82500000000007 -8.963999999999995 C -90.38400000000007 -14.316999999999995 -87.49700000000007 -16.980999999999995 -85.55900000000007 -20.907999999999994 C -84.10100000000007 -23.830999999999996 -83.89000000000007 -26.601999999999993 -83.89000000000007 -27.965999999999994 C -83.91700000000007 -28.270999999999994 -83.93100000000007 -28.576999999999995 -83.93100000000007 -28.881999999999994 C -83.93100000000007 -31.103999999999996 -83.25400000000006 -33.339999999999996 -81.82600000000006 -35.26199999999999 C -79.91700000000006 -37.831999999999994 -77.07200000000006 -39.28999999999999 -74.04500000000006 -39.556999999999995 C -67.82700000000006 -40.907999999999994 -63.90300000000006 -40.75299999999999 -59.75400000000006 -42.157 C -56.652000000000065 -43.19199999999999 -54.54600000000006 -45.004 -53.582000000000065 -45.971 C -51.954000000000065 -47.898999999999994 -49.65700000000007 -49.270999999999994 -46.96700000000006 -49.666999999999994 C -46.439000000000064 -49.74399999999999 -45.917000000000066 -49.77799999999999 -45.39700000000006 -49.78099999999999 C -42.811000000000064 -49.78099999999999 -40.37900000000006 -48.83099999999999 -38.42700000000006 -47.20399999999999 C -33.07400000000006 -43.760999999999996 -30.411000000000065 -40.873999999999995 -26.484000000000066 -38.937999999999995 C -23.553000000000065 -37.47 -20.775000000000066 -37.266999999999996 -19.416000000000068 -37.269999999999996 C -19.11500000000007 -37.293 -18.811000000000067 -37.306 -18.503000000000068 -37.303 C -16.28300000000007 -37.303 -14.049000000000067 -36.623 -12.130000000000067 -35.20399999999999 C -9.562000000000067 -33.297 -8.104000000000067 -30.450999999999993 -7.835000000000067 -27.423999999999992 C -6.484000000000067 -21.20499999999999 -6.641000000000067 -17.27799999999999 -5.234000000000067 -13.132999999999992 C -4.197000000000067 -10.027999999999992 -2.3850000000000664 -7.916999999999992 -1.4170000000000664 -6.955999999999992 C 0.5099999999999336 -5.3259999999999925 1.8789999999999334 -3.0309999999999926 2.2769999999999335 -0.3459999999999921 C 2.3529999999999336 0.18200000000000793 2.3919999999999337 0.704000000000008 2.3919999999999337 1.2210000000000079 C 2.3919999999999337 3.8130000000000077 1.4379999999999338 6.247000000000008 -0.18800000000006634 8.196000000000007 C -3.6310000000000664 13.547000000000008 -6.518000000000066 16.211000000000006 -8.455000000000066 20.140000000000008" stroke-linecap="round" />
</g>
</g>
</g>
<g transform="matrix(1.9211538461538462 0 0 1.9211538461538462 659.4842614950837 734.2839145554886)" id="text-logo-path"  >
<path style="stroke: rgb(255,255,255); stroke-width: 0; stroke-dasharray: none; stroke-linecap: butt; stroke-dashoffset: 0; stroke-linejoin: miter; stroke-miterlimit: 4; fill: rgb(42,54,78); fill-rule: nonzero; opacity: 1;"  paint-order="stroke"  transform=" translate(-185.22500000000002, 17.500000000000004)" d="M 31.05 -35 L 34.8 -35 L 19.3 0 L 15.65 0 L 0.15 -35 L 4.15 -35 L 17.55 -4.6 L 31.05 -35 Z M 52.75 -31.8 L 45.65 -31.8 L 45.65 -3.2 L 52.75 -3.2 L 52.75 0 L 34.9 0 L 34.9 -3.2 L 42 -3.2 L 42 -31.8 L 34.9 -31.8 L 34.9 -35 L 52.75 -35 L 52.75 -31.8 Z M 68.1 0.3 Q 64.2 0.3 60.62 -0.95 Q 57.05 -2.2 55.1 -4.25 L 55.1 -4.25 L 56.55 -7.1 Q 58.45 -5.2 61.6 -4.03 Q 64.75 -2.85 68.1 -2.85 L 68.1 -2.85 Q 72.8 -2.85 75.15 -4.58 Q 77.5 -6.3 77.5 -9.05 L 77.5 -9.05 Q 77.5 -11.15 76.22 -12.4 Q 74.95 -13.65 73.1 -14.33 Q 71.25 -15 67.95 -15.8 L 67.95 -15.8 Q 64 -16.8 61.65 -17.73 Q 59.3 -18.65 57.62 -20.55 Q 55.95 -22.45 55.95 -25.7 L 55.95 -25.7 Q 55.95 -28.35 57.35 -30.53 Q 58.75 -32.7 61.65 -34 Q 64.55 -35.3 68.85 -35.3 L 68.85 -35.3 Q 71.85 -35.3 74.72 -34.48 Q 77.6 -33.65 79.7 -32.2 L 79.7 -32.2 L 78.45 -29.25 Q 76.25 -30.7 73.75 -31.43 Q 71.25 -32.15 68.85 -32.15 L 68.85 -32.15 Q 64.25 -32.15 61.92 -30.38 Q 59.6 -28.6 59.6 -25.8 L 59.6 -25.8 Q 59.6 -23.7 60.87 -22.43 Q 62.15 -21.15 64.07 -20.48 Q 66 -19.8 69.25 -19 L 69.25 -19 Q 73.1 -18.05 75.47 -17.13 Q 77.85 -16.2 79.5 -14.33 Q 81.15 -12.45 81.15 -9.25 L 81.15 -9.25 Q 81.15 -6.6 79.72 -4.42 Q 78.3 -2.25 75.35 -0.98 Q 72.4 0.3 68.1 0.3 L 68.1 0.3 Z M 101.35 -31.8 L 94.25 -31.8 L 94.25 -3.2 L 101.35 -3.2 L 101.35 0 L 83.5 0 L 83.5 -3.2 L 90.6 -3.2 L 90.6 -31.8 L 83.5 -31.8 L 83.5 -35 L 101.35 -35 L 101.35 -31.8 Z M 130.5 -31.45 L 129.15 -28.55 Q 124 -31.55 117.75 -32 L 117.75 -32 L 117.75 0 L 114.05 0 L 114.05 -32 Q 107.9 -31.6 102.6 -28.55 L 102.6 -28.55 L 101.25 -31.45 Q 107.75 -35.3 115.85 -35.3 L 115.85 -35.3 Q 124.1 -35.3 130.5 -31.45 L 130.5 -31.45 Z M 169.45 -35 L 173.15 -35 L 173.15 0 L 169.6 0 L 169.6 -5.9 Q 166.15 0.3 157.85 0.3 L 157.85 0.3 Q 151.6 0.3 148.05 -3.45 Q 144.5 -7.2 144.5 -14.15 L 144.5 -14.15 L 144.5 -35 L 148.2 -35 L 148.2 -14.25 Q 148.2 -8.7 150.93 -5.85 Q 153.65 -3 158.55 -3 L 158.55 -3 Q 163.7 -3 166.58 -6.03 Q 169.45 -9.05 169.45 -15.1 L 169.45 -15.1 L 169.45 -35 Z M 207.5 0 L 193.2 -16.45 L 186.05 -9.2 L 186.05 0 L 182.35 0 L 182.35 -35 L 186.05 -35 L 186.05 -13.85 L 206.6 -35 L 210.85 -35 L 195.7 -19.15 L 211.9 0 L 207.5 0 Z M 243.65 0 L 239.6 0 L 231.6 -11.25 Q 230.25 -11.1 228.8 -11.1 L 228.8 -11.1 L 219.4 -11.1 L 219.4 0 L 215.7 0 L 215.7 -35 L 228.8 -35 Q 235.5 -35 239.3 -31.8 Q 243.1 -28.6 243.1 -23 L 243.1 -23 Q 243.1 -18.9 241.03 -16.07 Q 238.95 -13.25 235.1 -12 L 235.1 -12 L 243.65 0 Z M 228.7 -14.25 Q 233.9 -14.25 236.65 -16.55 Q 239.4 -18.85 239.4 -23 L 239.4 -23 Q 239.4 -27.25 236.65 -29.53 Q 233.9 -31.8 228.7 -31.8 L 228.7 -31.8 L 219.4 -31.8 L 219.4 -14.25 L 228.7 -14.25 Z M 263.95 -35.3 Q 270.75 -35.3 274.68 -31.33 Q 278.6 -27.35 278.6 -19.85 L 278.6 -19.85 L 278.6 0 L 274.95 0 L 274.95 -10.3 L 252.95 -10.3 L 252.95 0 L 249.35 0 L 249.35 -19.85 Q 249.35 -27.35 253.28 -31.33 Q 257.2 -35.3 263.95 -35.3 L 263.95 -35.3 Z M 252.95 -13.5 L 274.95 -13.5 L 274.95 -20.2 Q 274.95 -26.05 272.05 -29.03 Q 269.15 -32 263.95 -32 L 263.95 -32 Q 258.75 -32 255.85 -29.03 Q 252.95 -26.05 252.95 -20.2 L 252.95 -20.2 L 252.95 -13.5 Z M 301.85 -31.8 L 294.75 -31.8 L 294.75 -3.2 L 301.85 -3.2 L 301.85 0 L 284 0 L 284 -3.2 L 291.1 -3.2 L 291.1 -31.8 L 284 -31.8 L 284 -35 L 301.85 -35 L 301.85 -31.8 Z M 322.95 -35.3 Q 329.25 -35.3 332.83 -31.55 Q 336.4 -27.8 336.4 -20.85 L 336.4 -20.85 L 336.4 0 L 332.7 0 L 332.7 -20.75 Q 332.7 -26.3 329.95 -29.15 Q 327.2 -32 322.25 -32 L 322.25 -32 Q 317.05 -32 314.15 -28.98 Q 311.25 -25.95 311.25 -19.9 L 311.25 -19.9 L 311.25 0 L 307.55 0 L 307.55 -35 L 311.1 -35 L 311.1 -29.1 Q 314.45 -35.3 322.95 -35.3 L 322.95 -35.3 Z M 368.9 -6.8 L 370.3 -4 Q 368.15 -1.95 364.58 -0.83 Q 361 0.3 356.65 0.3 L 356.65 0.3 Q 352.05 0.3 348.83 -0.95 Q 345.6 -2.2 343.98 -4.4 Q 342.35 -6.6 342.35 -9.45 L 342.35 -9.45 Q 342.35 -12.6 344.23 -14.8 Q 346.1 -17 349.15 -17.85 L 349.15 -17.85 Q 346.65 -18.8 345.25 -20.88 Q 343.85 -22.95 343.85 -25.75 L 343.85 -25.75 Q 343.85 -28.4 345.38 -30.58 Q 346.9 -32.75 349.98 -34.02 Q 353.05 -35.3 357.4 -35.3 L 357.4 -35.3 Q 360.6 -35.3 363.63 -34.58 Q 366.65 -33.85 368.8 -32.5 L 368.8 -32.5 L 367.65 -29.55 Q 363.05 -32.15 357.55 -32.15 L 357.55 -32.15 Q 352.7 -32.15 350.13 -30.3 Q 347.55 -28.45 347.55 -25.5 L 347.55 -25.5 Q 347.55 -22.55 349.63 -20.95 Q 351.7 -19.35 355.5 -19.35 L 355.5 -19.35 L 364.2 -19.35 L 364.2 -16.15 L 355.35 -16.15 Q 351.05 -16.15 348.55 -14.53 Q 346.05 -12.9 346.05 -9.7 L 346.05 -9.7 Q 346.05 -6.55 348.78 -4.7 Q 351.5 -2.85 356.8 -2.85 L 356.8 -2.85 Q 360.5 -2.85 363.7 -3.9 Q 366.9 -4.95 368.9 -6.8 L 368.9 -6.8 Z" stroke-linecap="round" />
</g>
<g transform="matrix(1.9211538461538462 0 0 1.9211538461538462 633.2826855769231 414.1172296348351)" id="tagline-5ee91e92-cf6c-4e3e-8d12-a5abeedcede2-logo-path"  >
<path style="stroke: rgb(42,54,78); stroke-width: 10; stroke-dasharray: none; stroke-linecap: butt; stroke-dashoffset: 0; stroke-linejoin: miter; stroke-miterlimit: 4; fill: rgb(255,255,255); fill-rule: nonzero; opacity: 1;"  paint-order="stroke"  transform=" translate(-43.535, 21.86)" d="M 39.12 -44.1 L 43.85 -44.1 L 24.32 0 L 19.72 0 L 0.19 -44.1 L 5.23 -44.1 L 22.11 -5.8 L 39.12 -44.1 Z M 82.22 -44.1 L 86.88 -44.1 L 86.88 0 L 82.4 0 L 82.4 -7.43 Q 78.06 0.38 67.6 0.38 L 67.6 0.38 Q 59.72 0.38 55.25 -4.35 Q 50.78 -9.07 50.78 -17.83 L 50.78 -17.83 L 50.78 -44.1 L 55.44 -44.1 L 55.44 -17.96 Q 55.44 -10.96 58.87 -7.37 Q 62.31 -3.78 68.48 -3.78 L 68.48 -3.78 Q 74.97 -3.78 78.59 -7.59 Q 82.22 -11.4 82.22 -19.03 L 82.22 -19.03 L 82.22 -44.1 Z" stroke-linecap="round" />
</g>
</svg>